<svg width="400" height="413" viewBox="0 0 400 413" fill="none" xmlns="http://www.w3.org/2000/svg" style="backdrop-filter: blur(1rem);">
    <g clip-path="url(#clip0_1915_1819)">
        <path d="M400 290.697C400 372.232 366.758 413 300.274 413H295.438C238.078 413 207.512 377.587 188.2 291.793L154.957 143.751C147.445 109.434 139.416 86.3725 131.356 74.0206C123.297 62.2162 111.527 56.314 97.0499 56.314C71.32 56.314 57.9076 73.4729 57.9076 129.27V407.646H0V122.272C0 40.7676 33.2421 0 99.7263 0H104.562C161.922 0 192.488 35.413 211.8 121.208L245.043 269.249C252.555 303.566 260.584 326.628 268.644 338.432C276.703 350.753 288.473 356.656 302.95 356.656C328.68 356.656 342.092 339.497 342.092 283.7V5.35455H400V290.697Z" fill="currentColor"/>
    </g>
</svg>
