<?xml version="1.0" encoding="UTF-8"?><svg id="Layer_1" xmlns="http://www.w3.org/2000/svg" viewBox="0 0 420 100"><defs><style>.cls-1{fill:#fff;stroke-width:0px;}</style></defs><path class="cls-1" d="M95.24,87.11c1.54,0,3.02.6,4.18,1.59.14.14.15.34.02.48l-1.06,1.11c-.14.14-.29.14-.45,0-.74-.65-1.64-.99-2.59-.99-2.14,0-3.84,1.83-3.84,3.97s1.7,3.92,3.86,3.92c.96,0,1.7-.29,2.04-.43v-1.46h-1.37c-.19,0-.33-.14-.33-.31v-1.35c0-.19.14-.33.33-.33h3.29c.17,0,.31.15.31.33v4.39c0,.14-.07.22-.14.28,0,0-1.77,1.11-4.25,1.11-3.41,0-6.15-2.71-6.15-6.13s2.74-6.19,6.15-6.19"/><path class="cls-1" d="M111.48,92.75c.91,0,1.7-.79,1.7-1.75,0-.91-.79-1.66-1.7-1.66h-2.79v3.41h2.79ZM106.44,87.61c0-.17.14-.32.33-.32h4.9c2.06,0,3.74,1.64,3.74,3.68,0,1.58-1.05,2.86-2.54,3.46l2.35,4.35c.12.22,0,.5-.29.5h-1.8c-.15,0-.24-.09-.27-.15l-2.28-4.54h-1.9v4.37c0,.17-.15.32-.33.32h-1.58c-.19,0-.33-.15-.33-.32v-11.34Z"/><path class="cls-1" d="M127.2,97.22c2.16,0,3.94-1.77,3.94-3.92s-1.78-3.96-3.94-3.96-3.92,1.8-3.92,3.96,1.76,3.92,3.92,3.92M127.2,87.11c3.43,0,6.17,2.76,6.17,6.19s-2.74,6.15-6.17,6.15-6.15-2.72-6.15-6.15,2.72-6.19,6.15-6.19"/><path class="cls-1" d="M138.43,87.69c-.07-.24.07-.41.31-.41h1.58c.14,0,.28.12.31.24l1.78,6.84h.07l2.72-7.06c.03-.1.12-.19.29-.19h.31c.17,0,.26.08.29.19l2.74,7.06h.07l1.75-6.84c.04-.12.17-.24.31-.24h1.58c.24,0,.38.17.31.41l-3.24,11.51c-.04.14-.17.24-.31.24h-.27c-.15,0-.26-.09-.29-.19l-3.07-7.76h-.09l-3.03,7.76c-.05.1-.12.19-.29.19h-.27c-.14,0-.28-.1-.31-.24l-3.24-11.51Z"/><path class="cls-1" d="M159.19,87.28h1.59c.18,0,.33.15.33.33v11.34c0,.18-.15.32-.32.32h-1.59c-.18,0-.33-.15-.33-.33v-11.34c0-.18.15-.32.32-.32Z"/><path class="cls-1" d="M168.32,87.42c0-.17.15-.31.33-.31h.43l7.13,7.57h.02v-7.08c0-.17.14-.33.33-.33h1.58c.17,0,.33.15.33.33v11.53c0,.17-.15.31-.33.31h-.41l-7.16-7.87h-.02v7.37c0,.17-.14.33-.33.33h-1.56c-.17,0-.33-.15-.33-.33v-11.53Z"/><path class="cls-1" d="M191.01,87.11c1.54,0,3.02.6,4.18,1.59.14.14.15.34.02.48l-1.06,1.11c-.14.14-.29.14-.45,0-.74-.65-1.64-.99-2.59-.99-2.14,0-3.84,1.83-3.84,3.97s1.7,3.92,3.86,3.92c.96,0,1.7-.29,2.04-.43v-1.46h-1.37c-.19,0-.33-.14-.33-.31v-1.35c0-.19.14-.33.33-.33h3.29c.17,0,.31.15.31.33v4.39c0,.14-.07.22-.14.28,0,0-1.77,1.11-4.25,1.11-3.41,0-6.15-2.71-6.15-6.13s2.74-6.19,6.15-6.19"/><path class="cls-1" d="M214.19,97.25c.86,0,1.54-.67,1.54-1.56s-.86-1.49-1.75-1.49h-1.87v3.05h2.08ZM213.95,92.32c.87,0,1.47-.69,1.47-1.54s-.6-1.46-1.47-1.46h-1.84v3h1.84ZM209.9,87.61c0-.17.14-.32.33-.32h3.92c2.04,0,3.61,1.37,3.61,3.17,0,1.32-1.08,2.35-1.88,2.72.91.29,2.23,1.22,2.23,2.79,0,1.92-1.64,3.31-3.74,3.31h-4.15c-.19,0-.33-.15-.33-.32v-11.34Z"/><path class="cls-1" d="M226.69,93.5l-3.91-5.72c-.14-.22,0-.5.27-.5h1.75c.14,0,.22.09.27.15l2.74,3.94,2.74-3.94c.05-.07.14-.15.27-.15h1.77c.27,0,.41.27.27.5l-3.96,5.71v5.47c0,.17-.15.33-.33.33h-1.58c-.19,0-.32-.15-.32-.33v-5.45Z"/><path class="cls-1" d="M246.38,87.42c0-.17.15-.31.33-.31h.43l7.13,7.57h.02v-7.08c0-.17.14-.33.33-.33h1.58c.17,0,.33.15.33.33v11.53c0,.17-.15.31-.33.31h-.41l-7.16-7.87h-.02v7.37c0,.17-.14.33-.33.33h-1.56c-.17,0-.33-.15-.33-.33v-11.53Z"/><path class="cls-1" d="M269.66,95.18l-1.71-3.77h-.05l-1.68,3.77h3.44ZM262.26,98.83l5.33-11.53c.05-.1.14-.19.29-.19h.17c.17,0,.24.09.29.19l5.28,11.53c.1.22-.03.45-.29.45h-1.49c-.26,0-.38-.1-.5-.34l-.84-1.85h-5.12l-.84,1.85c-.07.17-.22.34-.5.34h-1.49c-.26,0-.39-.22-.29-.45"/><path class="cls-1" d="M280.16,89.34h-2.62c-.19,0-.33-.15-.33-.32v-1.41c0-.17.14-.33.33-.33h7.49c.19,0,.33.15.33.33v1.41c0,.17-.14.32-.33.32h-2.62v9.61c0,.17-.15.33-.33.33h-1.59c-.17,0-.33-.15-.33-.33v-9.61Z"/><path class="cls-1" d="M291.1,87.61c0-.17.15-.32.33-.32h1.63c.19,0,.33.15.33.32v7.01c0,1.46.99,2.6,2.48,2.6s2.5-1.15,2.5-2.59v-7.03c0-.17.14-.32.33-.32h1.63c.17,0,.33.15.33.32v7.13c0,2.6-2.07,4.71-4.78,4.71s-4.76-2.11-4.76-4.71v-7.13Z"/><path class="cls-1" d="M312.77,92.75c.91,0,1.7-.79,1.7-1.75,0-.91-.79-1.66-1.7-1.66h-2.79v3.41h2.79ZM307.73,87.61c0-.17.14-.32.32-.32h4.9c2.06,0,3.73,1.64,3.73,3.68,0,1.58-1.04,2.86-2.54,3.46l2.35,4.35c.12.22,0,.5-.29.5h-1.8c-.15,0-.24-.09-.27-.15l-2.28-4.54h-1.9v4.37c0,.17-.15.32-.33.32h-1.58c-.19,0-.32-.15-.32-.32v-11.34Z"/><path class="cls-1" d="M323.28,87.61c0-.17.14-.32.32-.32h6.97c.19,0,.33.15.33.32v1.41c0,.17-.14.33-.33.33h-5.07v2.81h4.23c.17,0,.32.15.32.32v1.42c0,.19-.15.33-.32.33h-4.23v3h5.07c.19,0,.33.15.33.33v1.41c0,.17-.14.32-.33.32h-6.97c-.19,0-.32-.15-.32-.32v-11.34Z"/><path class="cls-1" d="M62.16,45.47c0,12.6-5.14,18.89-15.41,18.89h-.75c-8.87,0-13.59-5.47-16.57-18.73l-5.14-22.87c-1.16-5.3-2.4-8.87-3.65-10.77-1.24-1.82-3.07-2.74-5.3-2.74-3.98,0-6.05,2.65-6.05,11.27v43.01H.34V19.45C.34,6.85,5.48.55,15.76.55h.75c8.87,0,13.59,5.47,16.57,18.73l5.14,22.87c1.16,5.3,2.4,8.87,3.65,10.69,1.24,1.91,3.07,2.82,5.3,2.82,3.98,0,6.05-2.65,6.05-11.27V1.38h8.95v44.09Z"/><path class="cls-1" d="M103.1,48.2c0-5.39-3.32-7.62-11.68-7.62s-11.6,2.32-11.6,7.62v.66c0,5.05,3.9,7.62,11.6,7.62,7.29,0,11.68-3.23,11.68-7.79v-.5ZM70.78,48.29c0-10.03,6.46-15.08,19.31-15.08,5.39,0,9.78.66,13.01,1.99v-4.23c0-6.05-3.56-9.78-11.1-9.78s-10.77,2.49-10.77,7.46h-8.78c0-10.53,6.38-15.74,19.23-15.74h1.66c12.27,0,18.81,6.96,18.81,18.23v16.33c0,10.86-8.12,16.91-20.05,16.91h-1.82c-12.27,0-19.47-5.22-19.47-15.25v-.83Z"/><path class="cls-1" d="M142.72,63.54c-6.96,0-11.85-1.49-14.59-4.47-2.82-2.9-4.23-8.2-4.23-15.83v-21.63h-7.13v-7.87h7.13V3.29h9.03v10.44h15.17v7.87h-15.17v22.38c0,4.56.66,7.54,2.07,9.03,1.41,1.49,3.9,2.24,7.46,2.24h6.13v8.29h-5.88Z"/><path class="cls-1" d="M197.33,21.52c0-7.04-4.72-11.85-14.42-11.85h-13.67v26.43h13.67c9.7,0,14.42-4.81,14.42-11.85v-2.74ZM206.36,24.75c0,5.72-1.82,10.36-5.47,14.09-3.73,3.73-9.11,5.55-16.24,5.55h-15.41v19.14h-9.03V1.38h23.04c7.54,0,13.26,1.82,17.24,5.55,3.9,3.73,5.88,8.45,5.88,14.17v3.65Z"/><path class="cls-1" d="M245.72,31.8c0-7.04-3.89-10.61-11.77-10.61s-11.77,3.56-11.77,10.61v13.51c0,7.13,3.9,10.69,11.77,10.69s11.77-3.56,11.77-10.69v-13.51ZM233.95,12.9c6.8,0,11.93,1.74,15.5,5.14,3.56,3.4,5.3,7.87,5.3,13.26v14.67c0,10.94-7.21,18.31-20.8,18.31s-20.8-7.38-20.8-18.31v-14.67c0-5.39,1.74-9.86,5.3-13.26,3.56-3.4,8.7-5.14,15.5-5.14"/><path class="cls-1" d="M314.6,48.87c.75,5.88,1.99,7.21,4.97,7.21,2.57,0,3.9-1.66,4.56-7.21l3.89-35.14h9.53l-4.97,36.38c-1.41,10.94-5.22,14.25-12.1,14.25h-1.57c-7.62,0-11.35-3.4-12.68-14.01l-2.73-21.21c-.75-6.3-1.82-7.79-4.39-7.79s-3.56,1.41-4.31,7.79l-2.74,21.21c-1.33,10.52-5.39,14.01-12.68,14.01h-1.57c-3.56,0-6.3-.99-8.2-2.98-1.91-1.99-3.23-5.72-3.98-11.27l-4.97-36.38h9.53l4.06,35.14c.66,5.64,1.82,7.21,4.56,7.21s4.31-1.57,4.97-7.21l2.9-22.38c.75-5.3,1.99-8.87,3.89-10.77s4.56-2.82,8.04-2.82h.91c3.56,0,6.3.91,8.2,2.82s3.15,5.47,3.89,10.77l2.98,22.38Z"/><path class="cls-1" d="M351.88,34.45h24.53v-2.9c0-7.04-4.06-10.52-12.18-10.52s-12.35,3.56-12.35,10.61v2.82ZM385.11,41.74h-33.23v3.98c0,6.96,4.14,10.44,12.43,10.44s12.1-2.49,12.1-7.46v-.5h8.7v1.41c0,8.37-7.13,14.67-20.8,14.67s-21.13-6.79-21.13-18.07v-15.16c0-11.27,7.21-18.15,21.05-18.15s20.88,6.88,20.88,18.15v10.69Z"/><path class="cls-1" d="M419.66,12.9v8.29h-4.06c-5.39,0-9.03.83-10.77,2.49-1.82,1.66-2.73,5.14-2.73,10.36v29.5h-9.03v-29.58c0-8.2,1.66-13.76,5.06-16.66,3.31-2.9,9.36-4.39,18.15-4.39h3.4Z"/></svg>