<?xml version="1.0" encoding="UTF-8"?><svg id="Layer_1" xmlns="http://www.w3.org/2000/svg" viewBox="0 0 64 64"><defs><style>.cls-1{fill:#fff;stroke-width:0px;}</style></defs><path class="cls-1" d="M62.91,45.01c0,12.6-5.14,18.9-15.41,18.9h-.75c-8.87,0-13.59-5.47-16.57-18.73l-5.14-22.87c-1.16-5.3-2.4-8.87-3.65-10.77-1.24-1.82-3.07-2.74-5.3-2.74-3.98,0-6.05,2.65-6.05,11.27v43.01H1.09V18.99C1.09,6.39,6.23.1,16.5.1h.75c8.87,0,13.59,5.47,16.57,18.73l5.14,22.87c1.16,5.3,2.4,8.87,3.65,10.69,1.24,1.91,3.07,2.82,5.3,2.82,3.98,0,6.05-2.65,6.05-11.27V.92h8.95v44.09Z"/></svg>